# This file uses centimeters as units for non-parametric coordinates.

mtllib arm.mtl
g default
v -0.927427 0.846106 -0.195157
v -0.866422 0.934950 -0.048543
v -0.911288 1.061079 -0.270273
v -1.055763 0.818417 -0.252460
v -0.856597 1.072268 -0.126919
v -0.939546 0.883537 0.098887
v -1.026741 1.079575 -0.311067
v -0.797229 1.379488 -0.278215
v -0.928065 1.093412 0.014895
v -1.153305 1.097809 -0.256025
v -1.186937 0.892658 -0.174389
v -0.789307 1.344597 -0.147464
v -0.876410 1.458643 -0.325967
v -1.268071 0.983559 -0.021834
v -0.946656 1.518007 -0.254339
v -1.049109 0.881150 0.147472
v -1.272761 1.140700 -0.084414
v -0.840786 1.382651 -0.006823
v -1.166878 0.923156 0.114381
v -1.032848 1.111990 0.062271
v -1.139610 1.127661 0.052873
v -1.023647 1.571781 -0.120282
v -0.913003 1.435644 0.050571
v -0.989894 1.513579 0.010774
v -0.862306 1.261926 -0.287378
v -0.842035 1.254785 -0.152390
v -0.898123 1.270201 -0.012985
v -1.000270 1.313620 0.039509
v -1.090687 1.344065 0.015920
v -1.175514 1.385859 -0.119549
v -1.080163 1.335953 -0.268568
v -0.974790 1.299582 -0.336651
v -0.730566 1.462379 -0.261471
v -0.732800 1.406378 -0.120714
v -0.764351 1.456272 0.019229
v -0.799950 1.535083 0.074260
v -0.828187 1.631442 0.030661
v -0.786858 1.640152 -0.235468
v -0.754242 1.564475 -0.304650
v -0.684135 1.483001 -0.252964
v -0.638976 1.619161 -0.290046
v -0.715253 1.422530 -0.110253
v -0.625128 1.747763 -0.230262
v -0.700474 1.476344 0.053047
v -0.678235 1.595068 0.103054
v -0.641989 1.732846 0.062758
v -0.834134 1.718703 -0.107267
v -0.618858 1.803863 -0.080609
v -0.933694 0.784222 -0.043549
v -1.052172 0.754412 -0.036632
v -1.176962 0.803740 -0.029935
vt 0.078050 0.707163
vt 0.064471 0.724585
vt 0.047371 0.746839
vt 0.115100 0.768139
vt 0.093928 0.781974
vt 0.225759 0.636172
vt 0.095550 0.750107
vt 0.109822 0.732425
vt 0.133133 0.755792
vt 0.182381 0.619295
vt 0.091346 0.686045
vt 0.216866 0.672470
vt 0.201397 0.650862
vt 0.123457 0.714523
vt 0.149528 0.742504
vt 0.162731 0.628631
vt 0.117728 0.658518
vt 0.119347 0.597817
vt 0.145951 0.692010
vt 0.170837 0.721925
vt 0.203004 0.686448
vt 0.182918 0.663820
vt 0.144935 0.638018
vt 0.167611 0.672925
vt 0.188728 0.701679
vt 0.102309 0.796095
vt 0.129343 0.784566
vt 0.232161 0.689633
vt 0.223788 0.708253
vt 0.213767 0.727153
vt 0.195457 0.752555
vt 0.170924 0.770025
vt 0.151653 0.778589
vt 0.247585 0.668089
vt 0.133843 0.793711
vt 0.165100 0.798486
vt 0.194018 0.796797
vt 0.243375 0.699441
vt 0.222895 0.782883
vt 0.243937 0.726077
vt 0.241049 0.755933
vt 0.087453 0.622806
vt 0.138473 0.588201
vt 0.050225 0.649777
vt 0.036449 0.674066
vt 0.021382 0.695494
vt 0.156465 0.576794
vt 0.188680 0.566469
vt 0.004883 0.726675
vt 0.244834 0.664452
vt 0.103597 0.800597
vt 0.236311 0.651536
vt 0.209169 0.607042
vt 0.078284 0.767896
vt 0.091238 0.634109
vt 0.091507 0.627728
vt 0.084600 0.623937
vn -0.099706 -0.258600 -0.960825
vn -0.122548 -0.157672 -0.979858
vn 0.685628 -0.239570 -0.687401
vn 0.670970 -0.270497 -0.690384
vn 0.994372 -0.102834 0.025491
vn 0.991291 -0.000133 0.131693
vn 0.643468 -0.375995 -0.666766
vn 0.810758 -0.577130 0.097939
vn 0.958623 -0.270108 0.089910
vn 0.679729 -0.250513 -0.689356
vn -0.142390 0.053780 -0.988349
vn -0.105796 0.227000 -0.968131
vn 0.718811 0.125977 0.683697
vn 0.591988 0.268320 0.759971
vn -0.701802 -0.161530 -0.693817
vn -0.696679 0.004757 -0.717367
vn 0.543186 -0.521713 0.657849
vn 0.713915 -0.159263 0.681881
vn -0.644336 0.296251 -0.705030
vn -0.510825 0.550422 -0.660374
vn 0.167177 0.232932 0.958016
vn 0.178685 0.325520 0.928498
vn -0.985615 0.100940 0.135553
vn -0.977749 0.204659 -0.046053
vn -0.884565 0.456565 -0.095360
vn -0.702962 0.704192 -0.099790
vn -0.052025 -0.048523 0.997466
vn 0.075794 0.053184 0.995704
vn -0.506329 0.298760 0.808934
vn -0.364675 0.321269 0.873956
vn -0.582899 0.344911 0.735707
vn -0.565171 0.499912 0.656254
vn 0.636389 -0.764660 0.101508
vn 0.543189 -0.453901 -0.706342
vn 0.274213 -0.673789 0.686160
vn -0.220860 0.017606 0.975147
vn -0.470784 0.617090 0.630526
vn -0.520483 0.852959 -0.039487
vn -0.385630 0.678819 -0.624896
vn -0.077623 0.280348 -0.956755
vn 0.375957 -0.487344 -0.788132
vn 0.365068 -0.924166 0.112443
vn -0.147567 0.372504 -0.916223
vn -0.353584 0.760320 -0.544879
vn -0.022194 -0.602282 0.797975
vn -0.451362 0.892079 0.021614
vn -0.316279 0.191962 0.929041
vn -0.429313 0.719316 0.546145
vn -0.496097 -0.805811 -0.323351
vn -0.496097 -0.805811 -0.323351
vn -0.479180 -0.873222 0.088718
vn -0.474230 -0.872050 0.120972
vn 0.275262 -0.910084 -0.309804
vn 0.275262 -0.910084 -0.309804
vn 0.290961 -0.951297 0.101867
vn 0.290506 -0.949362 0.119662
vn 0.903943 -0.407716 -0.129059
vn 0.909849 -0.402771 0.099752
vn 0.911326 -0.404134 0.078495
vn -0.881734 -0.452723 0.132617
vn -0.876429 -0.434732 -0.207077
vn -0.886969 -0.453366 0.088002
vn 0.874472 -0.380311 0.301102
vn 0.246940 -0.795754 0.552988
vn 0.246940 -0.795754 0.552988
vn -0.342807 -0.745064 0.572157
vn -0.342807 -0.745064 0.572157
vn -0.806201 -0.426931 0.409598
s 1
g polySurface2 Oni_Geo
usemtl aiStandardSurface1SG
f 4/45/1 7/1/2 3/2/3 1/46/4
f 1/46/4 3/2/3 5/3/5 2/49/6
f 8/4/7 12/5/8 26/54/9 25/7/10
f 32/8/11 13/9/12 8/4/7 25/7/10
f 9/10/13 6/47/14 2/48/6 5/53/5
f 4/45/1 11/44/15 10/11/16 7/1/2
f 12/52/8 18/12/17 27/13/18 26/6/9
f 31/14/19 15/15/20 13/9/12 32/8/11
f 9/10/13 20/16/21 16/43/22 6/47/14
f 11/44/15 14/42/23 17/17/24 10/11/16
f 30/19/25 22/20/26 15/15/20 31/14/19
f 18/12/17 23/21/27 28/22/28 27/13/18
f 20/16/21 21/23/29 19/18/30 16/43/22
f 21/23/29 17/17/24 14/42/23 19/18/30
f 29/24/31 24/25/32 22/20/26 30/19/25
f 28/22/28 23/21/27 24/25/32 29/24/31
f 26/54/9 5/3/5 3/2/3 25/7/10
f 27/13/18 9/10/13 5/53/5 26/6/9
f 28/22/28 20/16/21 9/10/13 27/13/18
f 20/16/21 28/22/28 29/24/31 21/23/29
f 21/23/29 29/24/31 30/19/25 17/17/24
f 17/17/24 30/19/25 31/14/19 10/11/16
f 7/1/2 10/11/16 31/14/19 32/8/11
f 7/1/2 32/8/11 25/7/10 3/2/3
f 34/26/33 12/5/8 8/4/7 33/27/34
f 35/28/35 18/12/17 12/52/8 34/50/33
f 36/29/36 23/21/27 18/12/17 35/28/35
f 37/30/37 24/25/32 23/21/27 36/29/36
f 22/20/26 47/31/38 38/32/39 15/15/20
f 15/15/20 38/32/39 39/33/40 13/9/12
f 13/9/12 39/33/40 33/27/34 8/4/7
f 40/35/41 42/51/42 34/26/33 33/27/34
f 39/33/40 41/36/43 40/35/41 33/27/34
f 38/32/39 43/37/44 41/36/43 39/33/40
f 42/34/42 44/38/45 35/28/35 34/50/33
f 38/32/39 47/31/38 48/39/46 43/37/44
f 44/38/45 45/40/47 36/29/36 35/28/35
f 45/40/47 46/41/48 37/30/37 36/29/36
f 37/30/37 46/41/48 48/39/46 47/31/38
f 22/20/26 24/25/32 37/30/37 47/31/38
s 3
f 11/44/49 4/45/50 50/56/51 51/57/52
s 4
f 4/45/53 1/46/54 49/55/55 50/56/56
s 5
f 1/46/57 2/48/58 49/55/59
s 6
f 14/42/60 11/44/61 51/57/62
s 5
f 49/55/59 2/48/58 6/47/63
s 4
f 50/56/56 49/55/55 6/47/64 16/43/65
s 3
f 51/57/52 50/56/51 16/43/66 19/18/67
s 6
f 14/42/60 51/57/62 19/18/68
