# File produced by Open Asset Import Library (http://www.assimp.sf.net)
# (assimp v3.1.128981410)

mtllib Maxwell%20-%20Metallic%20Roughness.mtl

# vertex positions
v -637.493408 -26.576975 637.493408
v 637.493408 -26.576975 637.493408
v 637.493408 26.576975 637.493408
v -637.493408 26.576975 637.493408
v 637.493408 26.576975 -637.493408
v -637.493408 26.576975 -637.493408
v 637.493408 -26.576975 -637.493408
v -637.493408 -26.576975 -637.493408

# UV coordinates
vt 0.000000 0.000000
vt 0.166667 0.000000
vt 0.166667 0.166667
vt 0.000000 0.166667
vt 0.166667 0.340166
vt 0.333333 0.340166
vt 0.333333 0.506832
vt 0.166667 0.506832
vt 0.333333 0.000000
vt 0.500000 0.000000
vt 0.500000 0.166667
vt 0.333333 0.166667
vt 0.500000 0.316294
vt 0.666667 0.316294
vt 0.666667 0.482961
vt 0.500000 0.482961
vt 0.666667 0.000000
vt 0.833333 0.000000
vt 0.833333 0.166667
vt 0.666667 0.166667
vt 1.000000 0.000000
vt 1.000000 0.166667

# vertex normals
vn 0.000000 0.000000 1.000000
vn 0.000000 1.000000 0.000000
vn 0.000000 0.000000 -1.000000
vn 0.000000 -1.000000 0.000000
vn 1.000000 0.000000 0.000000
vn -1.000000 0.000000 0.000000

# Mesh
g ground
usemtl initialShadingGroup
f 4/4/1 1/1/1 2/2/1
f 2/2/1 3/3/1 4/4/1
f 6/8/2 4/5/2 3/6/2
f 3/6/2 5/7/2 6/8/2
f 8/12/3 6/9/3 5/10/3
f 5/10/3 7/11/3 8/12/3
f 1/16/4 8/13/4 7/14/4
f 7/14/4 2/15/4 1/16/4
f 3/20/5 2/17/5 7/18/5
f 7/18/5 5/19/5 3/20/5
f 6/19/6 8/18/6 1/21/6
f 1/21/6 4/22/6 6/19/6
